<svg width="48" height="40" viewBox="0 0 48 40" fill="none" xmlns="http://www.w3.org/2000/svg"><path d="M47.582 35.553 26.012 1.2S25.43 0 24 0c-1.43 0-2.011 1.2-2.011 1.2L.419 35.553S0 36.114 0 36.872a2.285 2.285 0 0 0 2.286 2.286h43.428A2.285 2.285 0 0 0 48 36.872c0-.758-.418-1.319-.418-1.319z" fill="url(#a)"/><path d="M24.016 34.586c-.836 0-1.527-.254-2.07-.761-.545-.507-.817-1.121-.817-1.843 0-.754.275-1.37.824-1.852.549-.481 1.237-.721 2.063-.721.837 0 1.523.243 2.055.73.534.486.8 1.1.8 1.843 0 .753-.264 1.374-.792 1.866-.528.491-1.216.738-2.063.738zm2.54-22.033-.55 13.914a.793.793 0 0 1-.792.761h-2.49a.793.793 0 0 1-.792-.763l-.52-13.913a.793.793 0 0 1 .792-.823h3.56c.45 0 .81.374.792.824z" fill="url(#b)"/><defs><radialGradient id="b" cx="0" cy="0" r="1" gradientUnits="userSpaceOnUse" gradientTransform="translate(17.36 11.479) scale(25.5577)"><stop stop-color="#4B4B4B"/><stop offset=".531" stop-color="#393939"/><stop offset="1" stop-color="#252525"/></radialGradient><linearGradient id="a" x1="-356.287" y1="-404.127" x2="38.75" y2="48.949" gradientUnits="userSpaceOnUse"><stop stop-color="#FFDA1C"/><stop offset="1" stop-color="#FEB705"/></linearGradient></defs></svg>